<?xml version="1.0" encoding="UTF-8"?>
<svg width="512" height="512" viewBox="0 0 512 512" fill="none" xmlns="http://www.w3.org/2000/svg">
  <defs>
    <linearGradient id="g1" x1="0" y1="0" x2="1" y2="1">
      <stop offset="0%" stop-color="#7C3AED"/>
      <stop offset="100%" stop-color="#06B6D4"/>
    </linearGradient>
    <filter id="shadow" x="-20%" y="-20%" width="140%" height="140%">
      <feDropShadow dx="0" dy="8" stdDeviation="12" flood-color="#000" flood-opacity="0.25"/>
    </filter>
  </defs>

  <!-- Background circle -->
  <circle cx="256" cy="256" r="220" fill="url(#g1)" filter="url(#shadow)"/>

  <!-- Stylized A / Peak -->
  <path d="M256 110 L110 380 H190 L230 300 H282 L322 380 H402 L256 110 Z" fill="#ffffff"/>
  
  <!-- Pulse line (trainer/fitness cue) -->
  <path d="M120 320 C150 320 165 300 180 300 C195 300 205 340 220 340 C235 340 245 300 260 300 C275 300 285 330 300 330 C315 330 325 310 340 310 C355 310 370 320 392 320" stroke="#ffffff" stroke-width="12" fill="none" stroke-linecap="round"/>

  <!-- Text: APEX -->
  <text x="256" y="430" text-anchor="middle" font-family="Inter, Helvetica, Arial, sans-serif" font-weight="800" font-size="56" fill="#ffffff" letter-spacing="4">APEX</text>
</svg>
